HIERARCHY
ROOT Hips
{
  OFFSET -95.5816 95.0704 -75.333
  CHANNELS 6 Xposition Yposition Zposition Zrotation Xrotation Yrotation
  JOINT RightUpLeg
  {
    OFFSET -8.9458 -8.66707 0.101652
    CHANNELS 3 Zrotation Xrotation Yrotation
    JOINT RightLeg
    {
      OFFSET 0 -44.4227 1.3727
      CHANNELS 3 Zrotation Xrotation Yrotation
      JOINT RightFoot
      {
        OFFSET 0.253549 -42.0924 -1.46059
        CHANNELS 3 Zrotation Xrotation Yrotation
        JOINT RightToes
        {
          OFFSET 0.04 -4.41509 8.4991
          CHANNELS 3 Zrotation Xrotation Yrotation
          End Site
          {
            OFFSET -0.08 -0.137448 9.77979
          }
        }
      }
    }
  }
  JOINT Spine
  {
    OFFSET 0 11.8905 0
    CHANNELS 3 Zrotation Xrotation Yrotation
    JOINT Spine1
    {
      OFFSET 0 25.6574 0.127663
      CHANNELS 3 Zrotation Xrotation Yrotation
      JOINT HEad
      {
        OFFSET 0 8.73416 0.011341
        CHANNELS 3 Zrotation Xrotation Yrotation
        End Site
        {
          OFFSET -0.29 12.7742 2.51395
        }
      }
      JOINT LeftShoulder1
      {
        OFFSET 8.99 -0.362252 -0.22
        CHANNELS 3 Zrotation Xrotation Yrotation
        JOINT LeftArm
        {
          OFFSET 10.2827 -0.00338 0.322123
          CHANNELS 3 Zrotation Xrotation Yrotation
          JOINT LeftForeArm
          {
            OFFSET 32.7669 0.099144 -1.42434
            CHANNELS 3 Zrotation Xrotation Yrotation
            JOINT LeftHand
            {
              OFFSET 27.5643 0.085362 1.02216
              CHANNELS 3 Zrotation Xrotation Yrotation
              End Site
              {
                OFFSET 16.7443 -0.6 1.50291
              }
            }
          }
        }
      }
      JOINT RightShoulder
      {
        OFFSET -8.99 -0.362252 -0.22
        CHANNELS 3 Zrotation Xrotation Yrotation
        JOINT RightArm
        {
          OFFSET -10.2827 -0.00338 0.322123
          CHANNELS 3 Zrotation Xrotation Yrotation
          JOINT RightForeArm
          {
            OFFSET -32.8971 0.099144 -1.42434
            CHANNELS 3 Zrotation Xrotation Yrotation
            JOINT RightHand
            {
              OFFSET -27.4921 0.085362 1.02216
              CHANNELS 3 Zrotation Xrotation Yrotation
              End Site
              {
                OFFSET -16.6312 -0.6 1.50291
              }
            }
          }
        }
      }
    }
  }
  JOINT LeftUpLeg
  {
    OFFSET 8.9458 -8.66707 0.101652
    CHANNELS 3 Zrotation Xrotation Yrotation
    JOINT LeftLeg
    {
      OFFSET 0 -44.4227 1.3727
      CHANNELS 3 Zrotation Xrotation Yrotation
      JOINT LeftFoot
      {
        OFFSET -0.253549 -42.0924 -1.46059
        CHANNELS 3 Zrotation Xrotation Yrotation
        JOINT LeftToes
        {
          OFFSET -0.04 -4.41509 8.4991
          CHANNELS 3 Zrotation Xrotation Yrotation
          End Site
          {
            OFFSET 0.08 -0.047448 9.77979
          }
        }
      }
    }
  }
}
MOTION
Frames:	18
Frame Time:	0.0166667
-95.5816 95.0704 -75.333 -2.7373 -8.36165 57.95 -18.3033 -21.9206 -1.44136 6.27024 27.134 -14.2899 24.7576 31.3252 -8.46366 -28.3014 -28.206 8.119 0.743237 9.15682 -3.72602 -3.08344 17.9945 -6.52702 17.5019 -9.38791 -26.8976 -7.95139e-016 3.97569e-015 -0 -57.9592 4.04164 -55.9323 21.2128 12.1267 -124.975 -1.15165 9.59893 22.5053 35.4645 -4.07899 -13.2113 48.1922 -40.0399 30.092 -14.2422 18.5916 138.648 37.3911 3.84935 -21.8166 31.4207 1.11752 -9.64972 -15.1332 23.3386 24.3407 0.799976 19.6645 -0.323773 35.8636 -41.8185 12.6923 
-95.9436 95.2577 -74.5364 -1.98044 -8.34457 57.5014 -17.9891 -20.2137 1.96556 7.42907 27.8978 -18.363 19.6108 30.5582 -6.52215 -24.3935 -24.5097 8.6018 0.777633 9.05306 -3.68838 -3.4171 17.7536 -6.38539 17.1841 -8.55942 -27.1583 3.97569e-015 -1.98785e-015 -6.36111e-015 -58.1214 3.07973 -55.5 21.1988 12.8432 -124.26 -0.685578 9.67706 22.1409 34.1937 -3.66434 -12.4557 49.9401 -41.4803 32.5759 -15.2134 19.0367 137.105 35.5506 4.13551 -21.9036 29.5685 0.399209 -6.95212 -15.9818 27.2054 19.013 -0.76812 19.7495 0.0486774 39.6092 -44.2301 15.2691 
-96.2839 95.1561 -73.8001 -1.12501 -8.50722 56.6886 -17.6492 -18.4072 5.76898 9.31746 28.545 -21.5782 15.3452 29.1615 -4.88619 -20.705 -20.8922 8.85047 0.70131 8.98992 -3.5999 -3.70389 17.6244 -6.13466 16.7586 -7.64908 -27.3113 -3.97569e-015 3.97569e-016 -0 -58.7034 1.91162 -55.4716 21.778 13.6086 -123.342 -0.723465 9.66952 22.2726 32.4986 -3.13562 -11.4266 52.1478 -42.6278 35.7782 -16.263 20.0299 134.722 31.7545 4.63199 -22.3945 27.6885 0.541074 -5.15521 -16.8463 29.7638 15.7976 -1.5786 19.5566 0.240255 43.0754 -46.1421 17.8326 
-96.6126 94.8044 -73.0548 -0.380177 -8.76241 55.6083 -17.231 -16.5703 9.03583 11.1981 28.8288 -23.8297 12.3735 27.5485 -3.75161 -18.2435 -18.2059 8.18459 0.457787 8.87814 -3.48601 -3.87885 17.4383 -5.88606 16.318 -6.62798 -27.2826 -7.95139e-016 -3.18055e-015 3.18055e-015 -59.827 0.630346 -55.8039 22.9374 14.5737 -122.316 -1.45901 9.54147 22.9661 30.8129 -2.6594 -10.4454 54.4905 -43.1919 39.69 -17.1624 21.453 131.588 27.0098 5.20586 -23.3193 25.9782 1.52763 -4.48835 -17.6872 30.3406 16.1019 -0.523275 19.7971 -0.00971836 47.552 -48.0553 21.5809 
-96.9277 94.2842 -72.2379 0.0855356 -9.01989 54.4004 -16.7864 -14.8464 11.1346 12.6659 28.6849 -25.313 10.771 25.8587 -3.10471 -17.4461 -16.8294 6.14878 0.0496658 8.66868 -3.38989 -3.87731 17.0936 -5.78708 15.9253 -5.60772 -26.9723 -3.97569e-016 2.78299e-015 -3.18055e-015 -61.6105 -0.795605 -56.4425 24.4111 16.0202 -121.335 -2.92067 9.26997 24.0332 29.3701 -2.28909 -9.63931 56.6358 -43.0419 43.9061 -17.806 22.869 128.002 22.4153 5.74869 -24.569 24.4814 3.246 -4.80532 -17.9226 28.9284 19.8188 2.82114 20.4354 -0.827676 53.1528 -49.5146 27.0653 
-97.2245 93.7059 -71.3105 0.181546 -9.24426 53.1908 -16.3952 -13.5146 11.9233 13.8027 28.2963 -26.3078 10.3585 24.3378 -2.85384 -18.4027 -16.8322 2.95945 -0.429956 8.35906 -3.35094 -3.64846 16.5739 -5.9318 15.598 -4.76924 -26.335 -1.19271e-015 1.19271e-015 -3.18055e-015 -63.9879 -2.41369 -57.286 25.694 18.1076 -120.541 -4.80307 8.89572 25.0609 28.2071 -2.01054 -8.99933 58.2986 -42.3751 47.6806 -18.1106 23.9127 124.586 18.6466 6.20032 -25.9461 23.2228 5.46855 -5.76872 -17.0554 26.1883 25.1936 7.5071 20.2218 -1.95967 56.7397 -49.4134 31.7682 
-97.5178 93.1616 -70.2743 -0.104669 -9.48325 52.0872 -16.1012 -12.9465 11.5618 14.9009 28.1176 -26.9128 11.1039 23.9001 -3.02286 -21.3747 -18.4451 -0.516157 -0.781244 8.00387 -3.41569 -3.16174 15.9655 -6.35131 15.3213 -4.29977 -25.4033 -2.78299e-015 1.59028e-015 1.90833e-014 -66.5543 -4.19059 -58.1872 26.1427 20.6477 -119.935 -6.4383 8.56313 25.6187 27.229 -1.78121 -8.43856 59.4948 -41.7351 50.3104 -17.9018 24.673 122.18 15.5601 6.63852 -27.0459 22.3545 7.87758 -7.0537 -15.2014 22.9668 29.8945 11.3744 18.456 -2.71711 56.0031 -47.9774 32.9929 
-97.8545 92.7015 -69.1598 -0.716425 -9.8293 51.2095 -15.9464 -13.3839 10.3663 16.2658 28.6334 -27.1424 13.2175 25.5606 -3.79245 -26.4974 -21.6955 -3.67038 -0.780573 7.70223 -3.63594 -2.42094 15.4257 -7.03608 15.0656 -4.31583 -24.3204 -2.78299e-015 -1.19271e-015 3.18055e-015 -68.7108 -6.03758 -58.9852 25.1894 23.2024 -119.39 -7.08742 8.45541 25.4245 26.4348 -1.58476 -7.91879 60.2429 -41.6371 51.3841 -16.9765 25.5661 121.403 12.2792 7.29915 -27.089 22.2284 10.1266 -8.46692 -13.0688 19.8863 32.649 12.8671 16.0953 -2.77993 52.8348 -46.3157 31.5116 
-98.3003 92.372 -67.9799 -1.52911 -10.3165 50.7239 -16.0456 -14.6573 8.75167 18.1662 29.8601 -27.1199 16.7978 29.3433 -5.387 -32.9103 -25.8874 -6.16024 -0.358048 7.53725 -4.03916 -1.49154 15.0852 -7.95926 14.8119 -4.81508 -23.3406 3.97569e-015 3.18055e-015 -6.36111e-015 -69.9721 -7.8779 -59.5556 22.6728 25.3634 -118.868 -6.36385 8.65974 24.3124 26.0573 -1.45969 -7.54769 59.964 -42.1615 50.6754 -15.31 26.8169 122.311 8.00953 8.31199 -25.1405 23.2275 11.7837 -9.84553 -11.5679 17.4693 33.4197 11.8827 14.4804 -2.39719 50.2453 -45.3705 29.552 
-98.8982 92.2434 -66.7118 -2.39967 -10.8827 50.8558 -16.4943 -16.2258 7.02154 20.6471 31.3363 -26.8606 21.5721 33.9865 -7.84634 -38.3498 -29.93 -6.7974 0.400411 7.52482 -4.61778 -0.494358 14.9693 -9.08995 14.5947 -5.71152 -22.7508 -3.97569e-016 -3.97569e-016 -6.36111e-015 -70.0878 -9.60297 -59.875 19.0429 26.8855 -118.556 -4.43513 9.09091 22.2572 26.3101 -1.45146 -7.46962 57.6458 -42.9386 47.9993 -13.1968 28.0098 124.632 3.11395 9.34817 -20.8956 25.5272 12.3382 -11.0004 -11.4041 16.1532 32.5218 9.21829 14.4087 -1.87378 49.7596 -45.5161 28.6549 
-99.6365 92.3328 -65.3486 -3.24263 -11.4091 51.838 -17.2326 -17.5893 5.11011 23.1935 32.7705 -25.9976 26.9166 37.7389 -10.7822 -40.5446 -33.1359 -4.12612 1.44206 7.62729 -5.33144 0.439419 15.0223 -10.3454 14.5183 -6.89807 -22.8104 -3.97569e-016 -7.15625e-015 -3.18055e-015 -69.0833 -10.9548 -60.0792 15.3023 27.6697 -118.812 -1.96505 9.53818 19.6453 27.1385 -1.57948 -7.75949 52.7403 -43.4949 43.4457 -11.1845 28.1953 128.189 -0.612607 9.88909 -15.4746 28.9043 11.1894 -11.7262 -12.7373 16.4353 30.2875 5.92854 16.1766 -1.34172 51.456 -46.4626 29.4639 
-100.451 92.5909 -63.9033 -3.97514 -11.7921 53.772 -18.0858 -18.3811 2.84541 24.8747 34.1355 -24.172 31.6002 39.4699 -13.2577 -39.6645 -35.2686 1.03831 2.66677 7.78816 -6.05772 1.21085 15.188 -11.5429 14.6822 -8.27635 -23.7288 -4.77083e-015 7.95139e-016 -6.36111e-015 -67.2422 -11.4879 -60.4108 12.6924 27.5918 -119.954 0.175441 9.83321 17.3865 28.2822 -1.84168 -8.4188 45.9386 -44.0145 37.767 -9.9063 26.7767 132.961 -1.14775 9.92512 -11.1979 32.683 8.03132 -11.7875 -14.9721 18.598 27.0892 2.87093 19.951 -0.824735 54.5746 -47.6247 31.735 
-101.262 92.9034 -62.4051 -4.46241 -11.9808 56.5415 -18.9207 -18.3588 0.526129 25.1538 35.3283 -21.8819 33.7662 39.0662 -14.092 -38.1334 -36.5691 5.74181 3.87812 7.96083 -6.62653 1.76913 15.459 -12.4529 15.0805 -9.7667 -25.6086 1.59028e-015 -7.95139e-016 3.18055e-015 -64.8661 -10.746 -61.0628 12.0675 26.3671 -121.908 1.34402 9.95992 16.4106 29.3443 -2.17839 -9.28863 38.6357 -45.8853 31.8591 -9.73368 24.1307 138.527 2.12309 9.75586 -10.207 35.981 3.0666 -11.0122 -17.0039 22.5842 23.3287 0.406308 25.735 -0.289011 58.1216 -48.8554 34.2694 
-102.024 93.1587 -60.878 -4.53084 -11.9589 59.8271 -19.702 -17.3741 -0.951746 24.3851 35.9022 -20.6129 31.8434 36.891 -12.6106 -37.3881 -37.0274 7.75088 4.7917 8.12204 -6.89923 2.07982 15.8519 -12.8976 15.5878 -11.2747 -28.3871 5.56597e-015 7.95139e-016 -3.18055e-015 -62.1241 -8.63938 -62.1125 13.4083 23.8638 -124.043 1.33722 9.96237 17.0076 29.7761 -2.42252 -9.96667 31.3458 -50.533 25.6603 -10.5112 21.0198 143.479 8.17582 9.23474 -12.9735 38.1241 -2.95133 -9.53769 -17.7632 27.7318 19.4046 -1.57868 32.9735 0.34595 61.8724 -50.7556 35.9125 
-102.759 93.2911 -59.3415 -4.07165 -11.6786 63.1656 -20.4717 -15.4892 -0.550728 23.5797 35.3801 -21.7587 25.8015 32.5934 -9.12477 -35.6175 -34.8861 7.06191 5.16407 8.26524 -6.83233 2.07889 16.3394 -12.8047 16.0252 -12.624 -31.8196 3.18055e-015 3.18055e-015 -3.18055e-015 -59.1998 -5.66048 -63.4738 16.0833 20.4986 -125.605 0.304313 9.84251 18.8071 28.9505 -2.33849 -9.90323 22.942 -57.685 17.7653 -12.1208 18.1672 145.865 15.3582 7.95725 -18.1713 38.7739 -9.09916 -7.82137 -16.6588 33.0348 15.5833 -3.4799 40.0716 1.20514 66.3086 -53.5076 37.0433 
-103.509 93.2488 -57.8362 -3.15344 -11.0564 65.998 -21.269 -13.0869 2.0548 23.3089 33.7614 -25.0908 18.0318 25.1428 -5.14322 -29.115 -27.8895 5.70867 4.95581 8.37721 -6.47132 1.68483 16.814 -12.1847 16.2407 -13.5866 -35.4999 -2.38542e-015 0 3.18055e-015 -56.4423 -2.60851 -64.7586 19.38 17.0824 -126.318 -1.4155 9.58186 21.2026 26.3963 -1.78723 -8.64536 10.8988 -64.6776 5.73768 -15.055 16.1303 144.19 22.2471 5.88053 -24.0867 37.8742 -14.6297 -6.44788 -13.9026 37.535 11.862 -5.58851 45.0291 2.32511 70.6 -56.0608 38.2317 
-104.256 92.9357 -56.4495 -2.0234 -10.0495 67.7407 -22.1092 -10.7941 5.80016 22.8751 31.6316 -28.8901 12.0025 15.1673 -2.41 -18.1512 -16.9594 4.23381 4.23703 8.43519 -5.8468 0.861554 17.132 -11.0165 16.114 -14.0567 -39.0123 3.18055e-015 6.36111e-015 -0 -54.336 -0.116671 -65.3948 22.6326 14.4078 -126.401 -3.40313 9.20274 23.6061 22.2068 -0.934381 -6.232 -4.20945 -68.2299 -9.42743 -19.6354 15.6478 137.843 27.9775 3.35733 -29.6293 35.6894 -19.043 -5.95511 -10.7602 40.6951 8.33618 -7.98882 46.5292 3.55801 71.9407 -57.0695 38.3241 
-104.933 92.3711 -55.1904 -1.00173 -8.80957 67.8792 -22.8734 -9.1792 8.8521 21.3119 29.4535 -31.5462 9.06651 5.94478 -1.15849 -7.50782 -6.73939 1.70929 3.38791 8.41318 -4.90777 -0.229736 17.1895 -9.14991 15.4713 -14.1824 -42.1656 2.38542e-015 -1.59028e-015 6.36111e-015 -53.3333 1.51469 -64.9476 25.1926 12.9898 -126.237 -5.23251 8.7944 25.5011 17.2547 -0.200694 -3.52399 -14.2191 -68.1719 -18.8243 -24.7821 17.5556 127.133 32.8313 0.728723 -34.1435 32.9398 -21.8484 -6.53925 -8.84959 42.3399 5.31085 -10.5854 44.1442 4.58949 67.3802 -55.1616 35.9907 
